<?xml version="1.0" encoding="UTF-8"?>
<svg version="1.1" xmlns="http://www.w3.org/2000/svg" width="260" height="87">
<path d="M0 0 C85.8 0 171.6 0 260 0 C260 28.71 260 57.42 260 87 C174.2 87 88.4 87 0 87 C0 58.29 0 29.58 0 0 Z " fill="#FDFDFD" transform="translate(0,0)"/>
<path d="M0 0 C4.24512609 0.10353966 6.55602023 1.14516285 9.5625 4 C13.13800152 7.83770496 18 13.5167338 18 19 C18.52722656 18.83757813 19.05445312 18.67515625 19.59765625 18.5078125 C22.58749272 17.87581455 25.38236962 17.86793611 28.4375 17.875 C29.54996094 17.87242188 30.66242187 17.86984375 31.80859375 17.8671875 C34.66377492 17.98600777 37.22507946 18.34646731 40 19 C40.10957031 18.2678125 40.21914063 17.535625 40.33203125 16.78125 C41.99563483 9.85443276 47.14514929 3.86171004 53 0 C55.875 -0.3125 55.875 -0.3125 58 0 C62.43544056 9.64226208 63.99910556 20.76977394 60.625 31.0625 C59.85156604 33.09764693 59.03146408 34.94514048 57.94799805 36.83422852 C56.86199801 39.31527573 56.83441024 40.8655416 56.98046875 43.5546875 C57.00947266 44.41707031 57.03847656 45.27945313 57.06835938 46.16796875 C57.14746771 47.96541394 57.23852084 49.76237511 57.34179688 51.55859375 C57.46969328 55.959542 57.52454465 58.99023088 54.65625 62.4921875 C46.49711578 70.19537011 38.03998356 71.49538794 27.08203125 71.2421875 C17.36557933 70.47866403 10.02102882 67.92096665 3 61 C1.7534194 58.50683881 1.94588078 56.9493735 2.04296875 54.16796875 C2.06423828 53.20439453 2.08550781 52.24082031 2.10742188 51.24804688 C2.16050983 49.21905103 2.22548134 47.1903289 2.30273438 45.16210938 C2.48553529 39.26615424 2.48553529 39.26615424 0.06640625 34.03125 C-0.95646484 33.02578125 -0.95646484 33.02578125 -2 32 C-5.21925489 22.50319806 -4.59371568 12.62236497 -2 3 C-1.34 2.01 -0.68 1.02 0 0 Z " fill="#202122" transform="translate(12,7)"/>
<path d="M0 0 C3.50811852 0.97447737 4.93404776 1.92157031 7.3125 4.75 C10.10671147 10.1314443 9.15137252 13.76507422 7.5 19.375 C7.00802747 20.91924711 6.51069267 22.4618423 6 24 C6.49628906 24.3403125 6.99257813 24.680625 7.50390625 25.03125 C19.77994641 33.78986689 19.77994641 33.78986689 21.75390625 40.6015625 C22 43 22 43 21 45.3125 C19 47 19 47 15.875 47.6875 C10.36318833 46.70959793 7.1105452 43.65381795 3 40 C3.7421875 36.1875 3.7421875 36.1875 6.0625 34.5 C6.701875 34.005 7.34125 33.51 8 33 C8 31.68 8 30.36 8 29 C3.67265609 26.77076223 0.71599818 27.07529447 -4 28 C-4.33 29.98 -4.66 31.96 -5 34 C-4.01 34.33 -3.02 34.66 -2 35 C-1.67 35.66 -1.34 36.32 -1 37 C-0.34 37 0.32 37 1 37 C-1.07304325 41.8406086 -4.46577462 44.46279807 -9 47 C-12.8125 47.625 -12.8125 47.625 -16 47 C-18 45.3125 -18 45.3125 -19 43 C-18.71032456 38.15828192 -16.4007957 35.7314624 -13.1875 32.25 C-12.31480469 31.28578125 -11.44210938 30.3215625 -10.54296875 29.328125 C-8.18235712 27.1669506 -7.11430951 26.31941636 -4 26 C-4.30975468 24.22868439 -4.62290425 22.45796222 -4.9375 20.6875 C-5.11152344 19.70136719 -5.28554688 18.71523438 -5.46484375 17.69921875 C-5.95746847 14.91810787 -5.95746847 14.91810787 -7 12 C-5.8601959 4.81923419 -5.8601959 4.81923419 -2.375 1.5 C-1.59125 1.005 -0.8075 0.51 0 0 Z " fill="#F9F7F2" transform="translate(40,26)"/>
<path d="M0 0 C4.24512609 0.10353966 6.55602023 1.14516285 9.5625 4 C13.13800152 7.83770496 18 13.5167338 18 19 C19.65 19 21.3 19 23 19 C22.43539062 19.2784375 21.87078125 19.556875 21.2890625 19.84375 C18.95908625 21.02066633 16.66365618 22.24468357 14.375 23.5 C13.21097656 24.13421875 13.21097656 24.13421875 12.0234375 24.78125 C9.87456676 25.96484361 9.87456676 25.96484361 8 28 C7.34 28 6.68 28 6 28 C4.62689293 29.29233607 3.28965176 30.62437146 2 32 C1.01 30.68 0.02 29.36 -1 28 C-0.67 27.34 -0.34 26.68 0 26 C-0.99 26 -1.98 26 -3 26 C-6.19348129 19.61303742 -3.77469995 9.58391773 -2 3 C-1.34 2.01 -0.68 1.02 0 0 Z " fill="#191517" transform="translate(12,7)"/>
<path d="M0 0 C-0.35049575 3.24208567 -0.56221181 4.61527704 -3.0625 6.8125 C-3.701875 7.204375 -4.34125 7.59625 -5 8 C-4.44276746 11.34339526 -3.61461551 12.75978604 -0.875 14.75 C2.8147559 17.21993927 5.54483445 17.50435836 10 17 C12.31036915 16.57145005 12.31036915 16.57145005 14 16 C10.41918311 20.53570139 7.48636587 21.84274881 1.80078125 22.71875 C-7.19006747 23.62159673 -16.56277174 23.68269898 -25 20 C-26.3359375 17.890625 -26.3359375 17.890625 -27 16 C-26.34 16.33 -25.68 16.66 -25 17 C-21.23659999 17.61443266 -18.85729996 17.52735682 -15.57421875 15.5078125 C-11.16043465 12.30225333 -11.16043465 12.30225333 -8 8 C-8.99 8.33 -9.98 8.66 -11 9 C-11.33 8.01 -11.66 7.02 -12 6 C-13.49985609 4.33289654 -13.49985609 4.33289654 -15 3 C-14.25 0.5625 -14.25 0.5625 -13 -2 C-8.58695637 -4.20652181 -3.85557502 -2.57038335 0 0 Z " fill="#131414" transform="translate(49,55)"/>
<path d="M0 0 C0.99 0.33 1.98 0.66 3 1 C2.67 1.99 2.34 2.98 2 4 C2.99 4.99 3.98 5.98 5 7 C6.32 5.35 7.64 3.7 9 2 C9.97608217 4.92824652 10.08226668 6.95613276 10 10 C12.64 10 15.28 10 18 10 C18.33 10.66 18.66 11.32 19 12 C18.36191406 12.19335938 17.72382813 12.38671875 17.06640625 12.5859375 C16.24011719 12.84632812 15.41382812 13.10671875 14.5625 13.375 C13.73878906 13.63023438 12.91507813 13.88546875 12.06640625 14.1484375 C9.82201984 14.80882227 9.82201984 14.80882227 9 17 C9.66 17 10.32 17 11 17 C11.66 18.98 12.32 20.96 13 23 C14.98 23.33 16.96 23.66 19 24 C17.77703918 26.77945641 16.25041113 28.95362594 14.375 31.3125 C11.74312466 34.87826659 11.54653138 37.55600748 12 42 C6.25 38.375 6.25 38.375 4 35 C3.83642578 32.71923828 3.83642578 32.71923828 3.9453125 30.0703125 C3.96980469 29.10996094 3.99429687 28.14960937 4.01953125 27.16015625 C4.08958258 25.14423451 4.16764856 23.1285746 4.25390625 21.11328125 C4.47005589 15.22713157 4.47005589 15.22713157 2.04296875 10.00390625 C1.36878906 9.34261719 0.69460938 8.68132813 0 8 C-1.35064935 2.7012987 -1.35064935 2.7012987 0 0 Z " fill="#1C1B1C" transform="translate(10,31)"/>
<path d="M0 0 C2.625 1.6875 2.625 1.6875 4 4 C3.93047388 6.85057096 3.49728682 8.36764763 1.734375 10.609375 C-0.4547657 12.36463196 -1.91238768 12.4864049 -4.6875 12.6875 C-5.89986328 12.78611328 -5.89986328 12.78611328 -7.13671875 12.88671875 C-7.75160156 12.92410156 -8.36648437 12.96148437 -9 13 C-9 13.99 -9 14.98 -9 16 C-5.7 16 -2.4 16 1 16 C0.67 17.65 0.34 19.3 0 21 C-10.90486726 21.7715708 -10.90486726 21.7715708 -14.75 19.0625 C-16.44794958 14.90252352 -16.92505731 11.42317321 -16 7 C-12.17678771 0.21415088 -7.31888884 -0.93432623 0 0 Z " fill="#E0182D" transform="translate(118,41)"/>
<path d="M0 0 C5.94 0 11.88 0 18 0 C18 1.65 18 3.3 18 5 C14.04 5 10.08 5 6 5 C6 7.31 6 9.62 6 12 C8.97 12 11.94 12 15 12 C15 13.65 15 15.3 15 17 C11.7 17 8.4 17 5 17 C4.67 20.63 4.34 24.26 4 28 C1.69 28 -0.62 28 -3 28 C-2.39679558 18.58683624 -1.30875946 9.33581746 0 0 Z " fill="#DF182D" transform="translate(201,34)"/>
<path d="M0 0 C2.625 1.6875 2.625 1.6875 4 4 C3.93047388 6.85057096 3.49728682 8.36764763 1.734375 10.609375 C-0.4547657 12.36463196 -1.91238768 12.4864049 -4.6875 12.6875 C-5.89986328 12.78611328 -5.89986328 12.78611328 -7.13671875 12.88671875 C-7.75160156 12.92410156 -8.36648437 12.96148437 -9 13 C-9 13.99 -9 14.98 -9 16 C-5.7 16 -2.4 16 1 16 C1 17.65 1 19.3 1 21 C-0.91541138 21.10841951 -2.83259773 21.18578079 -4.75 21.25 C-6.35101563 21.31960937 -6.35101563 21.31960937 -7.984375 21.390625 C-11 21 -11 21 -13.328125 19.1875 C-15.73324996 16.04060753 -16 13.95345106 -16 10 C-13.15042064 1.61799262 -8.83675268 -1.28968823 0 0 Z " fill="#E11B30" transform="translate(178,41)"/>
<path d="M0 0 C7.92 0 15.84 0 24 0 C23.67 1.65 23.34 3.3 23 5 C20.03 5 17.06 5 14 5 C13.93941406 5.99 13.87882812 6.98 13.81640625 8 C13.39539534 14.69466638 12.94925871 21.35518903 12 28 C9.69 28 7.38 28 5 28 C5.14224587 25.47891897 5.28870121 22.95819597 5.4375 20.4375 C5.47681641 19.73302734 5.51613281 19.02855469 5.55664062 18.30273438 C5.82518279 13.8201459 6.30616197 9.43706503 7 5 C4.69 5 2.38 5 0 5 C0 3.35 0 1.7 0 0 Z " fill="#E1192E" transform="translate(85,34)"/>
<path d="M0 0 C3.50811852 0.97447737 4.93404776 1.92157031 7.3125 4.75 C9.20127832 8.38764713 9.56387191 9.9723435 9 14 C8.13028174 16.74333988 7.10272824 19.33507342 6 22 C5.0925 21.95875 4.185 21.9175 3.25 21.875 C0.05378189 21.99793147 -1.28410836 22.50035549 -4 24 C-4.13277344 23.38511719 -4.26554687 22.77023438 -4.40234375 22.13671875 C-4.57894531 21.32847656 -4.75554688 20.52023438 -4.9375 19.6875 C-5.19853516 18.48673828 -5.19853516 18.48673828 -5.46484375 17.26171875 C-5.99886159 14.854599 -5.99886159 14.854599 -7 12 C-5.8601959 4.81923419 -5.8601959 4.81923419 -2.375 1.5 C-1.59125 1.005 -0.8075 0.51 0 0 Z " fill="#FCFAF7" transform="translate(40,26)"/>
<path d="M0 0 C0 1.65 0 3.3 0 5 C1.32 5.33 2.64 5.66 4 6 C4 7.65 4 9.3 4 11 C2.35 11.33 0.7 11.66 -1 12 C-1 15.3 -1 18.6 -1 22 C-0.01 22.33 0.98 22.66 2 23 C2 24.32 2 25.64 2 27 C-4.15730337 28.30250648 -4.15730337 28.30250648 -7.4375 27.125 C-9.96354855 23.68957397 -9.38212182 20.11682182 -9 16 C-8.5 12.9375 -8.5 12.9375 -8 11 C-8.99 11 -9.98 11 -11 11 C-10.67 9.35 -10.34 7.7 -10 6 C-9.01 6 -8.02 6 -7 6 C-6.938125 5.38125 -6.87625 4.7625 -6.8125 4.125 C-6 2 -6 2 -3.5 0.75 C-1 0 -1 0 0 0 Z " fill="#E01B2F" transform="translate(239,35)"/>
<path d="M0 0 C0.99 0.33 1.98 0.66 3 1 C2.49396008 3.16874252 2.00016187 4.99967627 1 7 C1.66 6.67 2.32 6.34 3 6 C6.5 5.8125 6.5 5.8125 10 6 C12.35953094 8.35953094 12.49141413 9.77895617 13 13 C9.07031487 15.58236451 5.7298259 17.41360998 0.9375 16.6875 C-1 16 -1 16 -2.82421875 14.99609375 C-5.21435767 13.90186498 -7.14048972 13.60525091 -9.75 13.375 C-10.54921875 13.30023438 -11.3484375 13.22546875 -12.171875 13.1484375 C-12.77515625 13.09945312 -13.3784375 13.05046875 -14 13 C-14 12.67 -14 12.34 -14 12 C-11.36 12 -8.72 12 -6 12 C-5.67 9.69 -5.34 7.38 -5 5 C-4.34 5 -3.68 5 -3 5 C-2.87625 4.360625 -2.7525 3.72125 -2.625 3.0625 C-2.41875 2.381875 -2.2125 1.70125 -2 1 C-1.34 0.67 -0.68 0.34 0 0 Z " fill="#484847" transform="translate(52,38)"/>
<path d="M0 0 C0.99 0.33 1.98 0.66 3 1 C3.91284846 3.73854537 4.11813862 5.31166806 4.09765625 8.125 C4.09443359 8.91390625 4.09121094 9.7028125 4.08789062 10.515625 C4.07951172 11.33546875 4.07113281 12.1553125 4.0625 13 C4.05798828 13.81984375 4.05347656 14.6396875 4.04882812 15.484375 C4.04011557 17.0078272 4.0293492 18.53127002 4.01586914 20.0546875 C4.00242217 21.70307864 4 23.35155401 4 25 C3.01 25.99 2.02 26.98 1 28 C-1.31 25.36 -3.62 22.72 -6 20 C-5.34 19.34 -4.68 18.68 -4 18 C-4.66 17.34 -5.32 16.68 -6 16 C-6 9.44638668 -3.76884434 5.27638208 0 0 Z " fill="#E01A30" transform="translate(66,11)"/>
<path d="M0 0 C4.31514234 2.79901125 5.93976741 5.45034583 7.71484375 10.09765625 C8 12 8 12 6 15 C6.66 15.66 7.32 16.32 8 17 C7.34 17.33 6.68 17.66 6 18 C6.66 18.66 7.32 19.32 8 20 C7.071875 20.3403125 7.071875 20.3403125 6.125 20.6875 C3.38589791 22.37929835 2.94975528 23.99244161 2 27 C1.01 27 0.02 27 -1 27 C-1.66 25.35 -2.32 23.7 -3 22 C-2.67 21.67 -2.34 21.34 -2 21 C-1.97355761 17.19985088 -2.02947802 13.41185637 -2.12695312 9.61328125 C-2.13791016 8.81535156 -2.14886719 8.01742188 -2.16015625 7.1953125 C-2.18541382 6.09727295 -2.18541382 6.09727295 -2.21118164 4.97705078 C-2 3 -2 3 0 0 Z " fill="#DC192F" transform="translate(14,11)"/>
<path d="M0 0 C3.85147359 1.28382453 4.8755173 2.55687286 7 6 C7.33247898 8.76213303 7.18969502 11.20199852 7 14 C0.98375519 18.17453721 0.98375519 18.17453721 -3.875 17.3125 C-7 16 -7 16 -8 15 C-8.04063832 13.33382885 -8.042721 11.66611905 -8 10 C-8.66 10 -9.32 10 -10 10 C-9.4375 8.125 -9.4375 8.125 -8 6 C-4.375 4.75 -4.375 4.75 -1 4 C-1 3.01 -1 2.02 -1 1 C-0.67 0.67 -0.34 0.34 0 0 Z " fill="#464644" transform="translate(29,38)"/>
<path d="M0 0 C4.66666667 0 9.33333333 0 14 0 C13.875 2.3125 13.875 2.3125 13 5 C12.030625 5.33 11.06125 5.66 10.0625 6 C6.71594203 7.70235436 6.71594203 7.70235436 6.16015625 11.07421875 C5.670312 14.38156133 5.2756599 17.66831738 5 21 C2.69 21 0.38 21 -2 21 C-1.01 10.605 -1.01 10.605 0 0 Z " fill="#DF192E" transform="translate(184,41)"/>
<path d="M0 0 C0.928125 0.20625 1.85625 0.4125 2.8125 0.625 C1.6059375 1.8934375 1.6059375 1.8934375 0.375 3.1875 C-2.40213559 6.50747512 -3.02289467 9.26295864 -3.1875 13.625 C-2.8575 14.615 -2.5275 15.605 -2.1875 16.625 C-2.8475 16.955 -3.5075 17.285 -4.1875 17.625 C-4.5175 16.305 -4.8475 14.985 -5.1875 13.625 C-7.94391416 14.12256092 -7.94391416 14.12256092 -10.1875 15.625 C-12.52047433 15.66592937 -14.85455225 15.66741723 -17.1875 15.625 C-17.5175 16.285 -17.8475 16.945 -18.1875 17.625 C-18.59949749 13.42262558 -18.74582494 11.35251431 -16.125 7.9375 C-12.91565332 5.41099304 -9.78370773 3.55629674 -6.1875 1.625 C-3.1875 -0.375 -3.1875 -0.375 0 0 Z " fill="#2A2D30" transform="translate(37.1875,25.375)"/>
<path d="M0 0 C4.66666667 0 9.33333333 0 14 0 C13.8125 2.375 13.8125 2.375 13 5 C11.33927151 5.68132451 9.672233 6.34742127 8 7 C5.45759031 11.19497598 5.39702213 16.20439053 5 21 C2.69 21 0.38 21 -2 21 C-1.01 10.605 -1.01 10.605 0 0 Z " fill="#E0172C" transform="translate(124,41)"/>
<path d="M0 0 C4.33333333 0 8.66666667 0 13 0 C13 1.65 13 3.3 13 5 C12.030625 5.28875 11.06125 5.5775 10.0625 5.875 C6.89335797 6.64214682 6.89335797 6.64214682 6 9 C5.61369961 11.03583123 5.26403216 13.0787318 4.9375 15.125 C4.76089844 16.22070312 4.58429688 17.31640625 4.40234375 18.4453125 C4.26957031 19.28835937 4.13679687 20.13140625 4 21 C2.02 21 0.04 21 -2 21 C-1.85924795 18.06217531 -1.7126162 15.12484829 -1.5625 12.1875 C-1.52318359 11.35412109 -1.48386719 10.52074219 -1.44335938 9.66210938 C-1.40146484 8.85966797 -1.35957031 8.05722656 -1.31640625 7.23046875 C-1.27974854 6.49207764 -1.24309082 5.75368652 -1.20532227 4.99291992 C-1 3 -1 3 0 0 Z " fill="#E0192E" transform="translate(140,41)"/>
<path d="M0 0 C3.09683111 6.73224155 4.13878546 12.39902541 4.0625 19.875 C4.05347656 21.02742188 4.04445313 22.17984375 4.03515625 23.3671875 C4.02355469 24.23601563 4.01195313 25.10484375 4 26 C2.68 25.67 1.36 25.34 0 25 C-0.06058594 23.80761719 -0.12117188 22.61523438 -0.18359375 21.38671875 C-0.26801149 19.82030075 -0.35265887 18.25389512 -0.4375 16.6875 C-0.49647461 15.50897461 -0.49647461 15.50897461 -0.55664062 14.30664062 C-0.59853516 13.54931641 -0.64042969 12.79199219 -0.68359375 12.01171875 C-0.72025146 11.31522217 -0.75690918 10.61872559 -0.79467773 9.90112305 C-0.95581153 7.7783428 -0.95581153 7.7783428 -2 5 C-6.8976853 6.39933866 -8.96864865 9.01137981 -12 13 C-12.598125 13.78375 -13.19625 14.5675 -13.8125 15.375 C-14.204375 15.91125 -14.59625 16.4475 -15 17 C-13.99185441 9.77495657 -12.49144298 5.79909353 -6.8203125 1.16015625 C-4.45346648 -0.34832716 -2.74315908 -0.4987562 0 0 Z " fill="#242426" transform="translate(70,7)"/>
<path d="M0 0 C2.31 0 4.62 0 7 0 C6.34 6.93 5.68 13.86 5 21 C2.69 21 0.38 21 -2 21 C-1.01 10.605 -1.01 10.605 0 0 Z " fill="#E01B30" transform="translate(155,41)"/>
<path d="M0 0 C1.98 0 3.96 0 6 0 C5.85845864 2.56280208 5.71191438 5.12515485 5.5625 7.6875 C5.50352539 8.7693457 5.50352539 8.7693457 5.44335938 9.87304688 C5.21814322 13.66707282 4.87160695 17.28651492 4 21 C2.02 21 0.04 21 -2 21 C-2.28307925 13.75002578 -1.50974035 7.09038772 0 0 Z " fill="#E0192E" transform="translate(221,41)"/>
<path d="M0 0 C-0.1875 2.3125 -0.1875 2.3125 -1 5 C-4.16803189 7.4640248 -7.05362526 8.43623218 -11 9 C-11.33 8.01 -11.66 7.02 -12 6 C-13.49985609 4.33289654 -13.49985609 4.33289654 -15 3 C-14.25 0.5625 -14.25 0.5625 -13 -2 C-8.58695637 -4.20652181 -3.85557502 -2.57038335 0 0 Z " fill="#1D1C19" transform="translate(49,55)"/>
<path d="M0 0 C0.66 0.33 1.32 0.66 2 1 C0.35 3.97 -1.3 6.94 -3 10 C-2.34 10.33 -1.68 10.66 -1 11 C-1.33 11.99 -1.66 12.98 -2 14 C-1.34 14.66 -0.68 15.32 0 16 C-0.66 17.32 -1.32 18.64 -2 20 C-2.55171875 19.71382812 -3.1034375 19.42765625 -3.671875 19.1328125 C-6.15905289 17.92260849 -8.67747753 16.8904694 -11.25 15.875 C-12.58804688 15.34519531 -12.58804688 15.34519531 -13.953125 14.8046875 C-14.96632812 14.40636719 -14.96632812 14.40636719 -16 14 C-16 13.67 -16 13.34 -16 13 C-14.35 13 -12.7 13 -11 13 C-10.8453125 11.9171875 -10.8453125 11.9171875 -10.6875 10.8125 C-9.94013068 7.75508007 -8.71954811 5.61670365 -7 3 C-6.34 3.33 -5.68 3.66 -5 4 C-5.33 4.99 -5.66 5.98 -6 7 C-4.02 4.69 -2.04 2.38 0 0 Z " fill="#121416" transform="translate(63,13)"/>
<path d="M0 0 C2.8125 2.5625 2.8125 2.5625 5 5 C0.05183286 7.80396138 -4.61682285 6.77350507 -10 6 C-10 4.68 -10 3.36 -10 2 C-6.52799234 -0.87680635 -4.22977671 -1.69191068 0 0 Z " fill="#DFD6CB" transform="translate(45,69)"/>
<path d="M0 0 C0.25136719 0.61230469 0.50273438 1.22460938 0.76171875 1.85546875 C2.83053095 5.43836432 6.18383989 6.69369904 10 8 C13.2143255 7.92857054 14.39530428 7.52128941 16.8125 5.4375 C17.204375 4.963125 17.59625 4.48875 18 4 C17.25 8.75 17.25 8.75 15 11 C11.16875956 11.70369722 8.85326603 11.5431106 5.5390625 9.43359375 C3.2970664 7.68313938 1.12567201 5.88948623 -1 4 C-0.67 2.68 -0.34 1.36 0 0 Z " fill="#DAD0C3" transform="translate(44,62)"/>
<path d="M0 0 C0.556875 0.7115625 0.556875 0.7115625 1.125 1.4375 C-1.875 2.4375 -1.875 2.4375 -5.25 1.875 C-8.97796475 1.42507322 -10.59970772 1.75022822 -13.875 3.4375 C-13.125 1 -13.125 1 -11.875 -1.5625 C-8.01957406 -3.49021297 -3.25646076 -2.7137173 0 0 Z " fill="#4B4E4F" transform="translate(47.875,54.5625)"/>
<path d="M0 0 C1.98 0 3.96 0 6 0 C6.38218767 1.65614657 6.71395102 3.32457024 7 5 C6 6 6 6 2.9375 6.0625 C1.968125 6.041875 0.99875 6.02125 0 6 C-1.125 2.25 -1.125 2.25 0 0 Z " fill="#E11B2F" transform="translate(222,33)"/>
<path d="M0 0 C1.4540625 0.0309375 1.4540625 0.0309375 2.9375 0.0625 C2.980221 1.72861905 2.97813832 3.39632885 2.9375 5.0625 C1.9375 6.0625 1.9375 6.0625 -0.625 6.125 C-1.8315625 6.0940625 -1.8315625 6.0940625 -3.0625 6.0625 C-3.44468767 4.40635343 -3.77645102 2.73792976 -4.0625 1.0625 C-3.0625 0.0625 -3.0625 0.0625 0 0 Z " fill="#E1182D" transform="translate(160.0625,32.9375)"/>
<path d="M0 0 C0.66 0.33 1.32 0.66 2 1 C-1.14285714 8.42857143 -1.14285714 8.42857143 -3 12 C-3.99 12 -4.98 12 -6 12 C-4.68139111 7.38486888 -2.78644563 3.90102388 0 0 Z " fill="#BF192A" transform="translate(66,11)"/>
<path d="M0 0 C0.66 1.32 1.32 2.64 2 4 C3.41702513 3.85769192 4.8336096 3.71099254 6.25 3.5625 C7.03890625 3.48128906 7.8278125 3.40007812 8.640625 3.31640625 C10.82364639 3.02365007 12.8773182 2.57935581 15 2 C12.19475573 5.40029608 10.8089439 6.87447422 6.375 7.5625 C3 7 3 7 1.0625 5.1875 C0 3 0 3 0 0 Z " fill="#DDD4CA" transform="translate(21,66)"/>
<path d="M0 0 C5.08902088 3.30098652 6.23265063 6.41889673 8 12 C7.01 12 6.02 12 5 12 C4.16180842 10.37750059 3.3295884 8.75191503 2.5 7.125 C2.0359375 6.22007813 1.571875 5.31515625 1.09375 4.3828125 C0 2 0 2 0 0 Z " fill="#C2172A" transform="translate(14,11)"/>
<path d="M0 0 C2.89628331 1.2983339 5.0679604 2.45322053 7 5 C8.50255809 9.13203474 9.29227198 11.80011607 8 16 C7.75765625 15.40832031 7.5153125 14.81664062 7.265625 14.20703125 C5.29701264 9.56564904 3.287113 5.87409746 0 2 C0 1.34 0 0.68 0 0 Z " fill="#4A4F53" transform="translate(18,10)"/>
<path d="M0 0 C1.65 0.33 3.3 0.66 5 1 C4.34 2.32 3.68 3.64 3 5 C1.35 5 -0.3 5 -2 5 C-1.34 3.35 -0.68 1.7 0 0 Z " fill="#FDFAFB" transform="translate(111,45)"/>
<path d="M0 0 C-0.66 1.32 -1.32 2.64 -2 4 C-3.65 4 -5.3 4 -7 4 C-6.625 2.0625 -6.625 2.0625 -6 0 C-3.50907189 -1.24546405 -2.58919267 -0.7767578 0 0 Z " fill="#FDFDFD" transform="translate(176,46)"/>
<path d="M0 0 C0.99 0.33 1.98 0.66 3 1 C2.67 2.32 2.34 3.64 2 5 C0.35 5.33 -1.3 5.66 -3 6 C-2.625 3.5625 -2.625 3.5625 -2 1 C-1.34 0.67 -0.68 0.34 0 0 Z " fill="#5A6165" transform="translate(52,38)"/>
<path d="M0 0 C0 0.66 0 1.32 0 2 C-1.27875 2.144375 -2.5575 2.28875 -3.875 2.4375 C-6.25692894 2.70642746 -7.84452691 2.92226346 -10 4 C-7.53453745 -1.4592385 -5.69047474 -1.11335375 0 0 Z " fill="#E5DBD2" transform="translate(46,48)"/>
<path d="M0 0 C0.33 0.99 0.66 1.98 1 3 C-0.32 3.99 -1.64 4.98 -3 6 C-3.66 5.34 -4.32 4.68 -5 4 C-5 3.01 -5 2.02 -5 1 C-3.35 0.67 -1.7 0.34 0 0 Z " fill="#161613" transform="translate(48,56)"/>
<path d="M0 0 C0.99 0.33 1.98 0.66 3 1 C4.1875 3.5625 4.1875 3.5625 5 6 C2.625 5.6875 2.625 5.6875 0 5 C-0.66 4.01 -1.32 3.02 -2 2 C-1.34 1.34 -0.68 0.68 0 0 Z " fill="#5C6368" transform="translate(29,38)"/>
<path d="M0 0 C3.63 0 7.26 0 11 0 C11 0.66 11 1.32 11 2 C11.99 2.33 12.98 2.66 14 3 C8.93437617 3.25328119 4.84241633 2.33583899 0 1 C0 0.67 0 0.34 0 0 Z " fill="#3C3E3F" transform="translate(36,25)"/>
<path d="M0 0 C2.02045442 0.60183749 4.02111039 1.27306096 6 2 C6.33 2.66 6.66 3.32 7 4 C6.34 4 5.68 4 5 4 C4.67 4.99 4.34 5.98 4 7 C3.67 6.01 3.34 5.02 3 4 C0.49552484 2.78130071 0.49552484 2.78130071 -2 2 C-1.34 1.34 -0.68 0.68 0 0 Z " fill="#F4EFE5" transform="translate(45,51)"/>
<path d="M0 0 C0 3 0 3 -1.25 4.5625 C-3.07449868 6.06119535 -4.85092456 7.03662136 -7 8 C-5.50902342 4.2047869 -3.24299151 2.38957269 0 0 Z " fill="#2A2D2E" transform="translate(65,7)"/>
</svg>
